<svg xmlns="http://www.w3.org/2000/svg" version="1.1" xmlns:xlink="http://www.w3.org/1999/xlink" xmlns:svgjs="http://svgjs.com/svgjs" width="512" height="512" x="0" y="0" viewBox="0 0 512.306 512.306" style="enable-background:new 0 0 512 512" xml:space="preserve"><g><path d="M497 437.154H15c-8.284 0-15 6.716-15 15v45c0 8.284 6.716 15 15 15h482c8.284 0 15-6.716 15-15v-45c0-8.284-6.716-15-15-15zM361 332.154c-39.32 0-87.47 20.34-105 28.39-17.53-8.05-65.68-28.39-105-28.39-48.33 0-87.07 34.54-108.41 75h426.82c-21.39-40.59-60.2-75-108.41-75zM46 242.154h17.386l14.314 82.09c22.62-14.49 47.76-22.09 73.3-22.09 24.83 0 51.52 6.42 74.55 14.09l13.038-74.09H256c8.284 0 15-6.716 15-15s-6.716-15-15-15h-15c0-49.626-40.374-90-90-90s-90 40.374-90 90H46c-8.284 0-15 6.716-15 15s6.716 15 15 15zm105-90c33.084 0 60 26.916 60 60H91c0-33.084 26.916-60 60-60zM459.79 344.534l11.1-41.4c9.4-35.076-7.64-70.956-38.935-86.527L478.931 41.29l14.489 3.882c8.008 2.148 16.229-2.614 18.371-10.606 2.144-8.002-2.604-16.227-10.607-18.371L443.229.665c-7.99-2.141-16.227 2.604-18.371 10.607-2.144 8.002 2.604 16.227 10.607 18.371l14.488 3.882-46.978 175.326c-34.828-2.118-67.603 20.472-76.975 55.453l-11.78 43.97c15.44-3.67 31.46-6.12 46.78-6.12 37.227 0 71.552 15.964 98.79 42.38z" fill="#ac44d9" data-original="#000000"></path></g></svg>